<svg width="138" height="137" viewBox="0 0 138 137" fill="none" xmlns="http://www.w3.org/2000/svg">
<path fill-rule="evenodd" clip-rule="evenodd" d="M52.8167 14.944C56.7747 9.47907 60.9906 4.46742 66.4661 0C66.3914 1.62103 65.7484 2.67014 65.1576 3.63411C65.05 3.80972 64.9441 3.98249 64.8437 4.15539C63.5562 6.37244 62.6115 8.72179 61.7351 11.1048C60.7504 13.7823 60.9408 14.053 63.699 14.4527C63.7628 14.462 63.8273 14.4684 63.893 14.475C64.2629 14.512 64.6674 14.5524 65.1629 15.1148C58.4925 19.1224 51.9647 23.2546 45.8201 28.0526C47.3553 23.248 50.0343 19.1566 52.8167 14.944ZM74.2297 91.5605L74.2291 91.5616C73.6643 92.848 73.0976 94.1387 72.5414 95.4394C72.4158 95.8271 72.2903 96.2016 72.1677 96.5673C71.8456 97.5279 71.544 98.4275 71.3169 99.3456C68.6992 109.928 72.5399 120.483 83.2402 124.694C94.3263 129.058 104.698 126.828 113.762 119.604C127.457 108.687 134.874 93.9768 137.094 76.82C138.588 65.277 137.183 53.8657 132.58 43.0186C126.242 28.0806 116.062 16.6198 101.651 9.01902C101.589 8.98609 101.527 8.94737 101.463 8.90788C101.109 8.68845 100.717 8.44542 100.079 9.04151C113.562 20.4704 122.129 34.3451 121.445 52.8492C117.356 50.1172 113.265 47.8008 108.407 47.0066C108.299 48.0306 108.818 48.5907 109.305 49.117L109.305 49.1171L109.305 49.1171C109.45 49.2732 109.592 49.4263 109.714 49.5876C114.581 56.0294 118.055 63.0922 119.023 71.1785C119.842 78.0207 119.492 84.712 115.346 90.6571C112.182 95.1933 106.789 96.9616 102.406 94.8688C98.2831 92.8999 95.1918 85.4792 96.7432 81.2394C97.2104 79.9628 98.1087 80.0497 98.9959 80.7073C100.231 81.6231 101.178 82.8126 102.051 84.0886C102.616 84.9137 103.074 85.7953 103.535 86.6812C104.073 87.7179 104.615 88.7606 105.335 89.726C109.824 75.7489 108.827 63.0921 95.8033 53.016C99.3749 52.2521 101.68 53.7757 104.086 55.3667L104.086 55.3668C104.713 55.7808 105.346 56.1994 106.01 56.5834C105.568 52.6255 104.269 49.3739 102.688 46.2271C98.4015 37.6936 90.7078 34.2862 81.5843 32.915C82.7424 31.148 84.3421 30.4215 85.9733 29.6807C86.822 29.2952 87.6793 28.9059 88.4874 28.3641L88.2038 28.2431C84.6755 26.7372 81.4047 25.3411 77.8944 25.9494C75.7212 26.3259 73.9099 27.5497 72.08 28.7861C70.9845 29.5263 69.8822 30.2711 68.6916 30.8412C75.3642 20.8149 83.5323 12.1936 92.5571 4.29025C90.7261 4.46872 89.1923 5.24938 87.6732 6.0226L87.673 6.02266C87.2792 6.22314 86.8862 6.42312 86.4894 6.61197C68.8997 14.9825 52.9087 25.7534 38.2216 38.5374C35.2552 41.1194 33.3836 43.7013 33.499 47.907C33.5977 51.5067 32.0199 54.8848 29.2697 57.421C27.379 59.1646 25.8036 58.656 25.0478 56.2328C24.8909 55.7298 24.7787 55.2129 24.6574 54.6542C24.599 54.3852 24.5385 54.1065 24.4699 53.8151C24.3479 53.8882 24.2299 53.9461 24.1218 53.999C23.9166 54.0997 23.7477 54.1825 23.6571 54.3178C20.709 58.7209 18.2486 63.3174 18.3314 68.8253C18.3947 73.0403 20.7855 76.1739 24.833 77.3511C26.1576 77.7364 27.5149 78.0828 28.8809 78.2374C32.4204 78.6379 35.9032 78.339 39.5166 77.2132C39.3849 77.0177 39.2759 76.8552 39.1812 76.714L39.1808 76.7135C39.0115 76.4609 38.8878 76.2764 38.7616 76.0938C37.2634 73.9262 38.0778 72.1579 40.7333 71.9211C41.4451 71.8576 42.1907 71.9658 42.8987 72.1063C44.7053 72.4649 46.5349 72.5546 48.3314 72.2718C50.7295 71.8944 53.1635 71.4694 54.9894 69.6249C54.6576 69.0748 54.2351 68.9471 53.8363 68.8265L53.8362 68.8265C53.7492 68.8002 53.6633 68.7742 53.5798 68.7443C53.3416 68.659 53.0913 68.5795 52.8379 68.499C51.4299 68.0519 49.9254 67.5741 49.8694 65.8978C49.811 64.1469 51.4656 63.5062 52.8859 62.9562L52.886 62.9562C53.047 62.8939 53.2049 62.8327 53.357 62.7713C60.0714 60.0574 67.0541 59.6792 74.1636 60.6096C74.3373 60.6323 74.5131 60.6719 74.6911 60.7121C75.3567 60.8621 76.0552 61.0195 76.8069 60.3319C75.979 56.8605 73.9451 54.1658 71.0978 51.9943C70.9741 51.8999 70.8304 51.8132 70.6847 51.7253L70.6846 51.7253C70.1844 51.4235 69.6606 51.1075 69.8394 50.4174C70.0597 49.5667 70.7833 49.6017 71.4513 49.6341C71.5978 49.6412 71.7416 49.6481 71.8769 49.6456C77.5658 49.5386 81.3251 53.1416 82.0758 59.4059C82.6939 64.5634 81.6192 69.5593 80.4766 74.5214C79.1153 80.4338 76.6905 85.956 74.2297 91.5605ZM83.5419 94.9595C84.4297 100.003 85.2754 104.808 88.086 108.964C91.2739 113.812 95.564 116.597 101.143 117.969C92.019 120.972 81.7454 117.032 81.3907 105.502C81.2923 102.305 81.2142 99.0955 81.9861 95.95C82.0283 95.778 82.0634 95.603 82.0993 95.4242L82.0994 95.4238C82.2502 94.6724 82.4146 93.8533 83.1749 92.9031C83.3013 93.5923 83.422 94.2781 83.5419 94.9595ZM46.8648 41.2456C47.282 40.8902 47.6992 40.5348 48.1272 40.199C48.3529 40.0464 48.5429 39.8801 48.7188 39.7261C49.1385 39.3587 49.478 39.0615 50.0307 39.1876C50.3663 42.2915 47.5568 47.0242 44.7754 47.8707C43.4537 48.273 42.7435 49.1163 42.219 50.3096C41.8786 51.0839 41.3472 51.7741 40.6567 52.3945C40.8442 51.5381 40.8965 50.6387 40.9487 49.7405C41.0891 47.324 41.2289 44.9163 44.001 43.3788C45.0326 42.8067 45.9487 42.0262 46.8648 41.2457L46.8648 41.2457L46.8648 41.2456ZM17.1595 112.36C27.8753 127.612 54.5087 141.997 83.4527 135.322C83.5319 135.305 83.6098 135.291 83.6857 135.277L83.6861 135.277L83.6863 135.277C84.2311 135.175 84.6703 135.094 84.743 134.49C84.3471 134.144 83.8969 134.172 83.4484 134.2L83.448 134.2C83.2525 134.212 83.0573 134.225 82.8671 134.206C76.0548 133.533 69.9343 131.259 65.3282 126.001C59.51 119.36 59.2084 111.46 60.8709 103.347C62.4386 95.698 65.971 88.8349 70.0907 82.264C71.5354 79.9597 72.7345 77.5431 72.9105 74.7838C73.1303 71.3372 72.4124 68.098 69.2299 66.2422C66.1914 64.4705 62.8602 63.6431 59.3783 65.0759C59.406 65.8846 59.7923 66.325 60.1546 66.7382C60.2749 66.8753 60.3926 67.0095 60.4937 67.1531C63.0392 70.7721 62.8489 75.0422 59.9748 78.4149C55.5356 83.6242 48.7638 85.0106 42.6081 81.9798L42.5487 81.9502L42.4976 81.9245C42.0218 81.6848 41.5167 81.4304 40.7813 81.9507C40.4125 85.5628 42.6126 87.998 45.1502 90.2118C44.4754 91.19 43.5502 91.2231 42.714 91.2532C42.6427 91.2557 42.5721 91.2582 42.5023 91.2613C35.9428 91.5522 29.7488 90.2271 24.2385 86.5532C15.6547 80.8301 11.9385 72.248 10.7234 62.421C9.21436 50.2163 11.624 38.6791 17.2965 27.8078C18.0414 26.3804 18.855 24.9888 19.6686 23.5972C20.044 22.9552 20.4193 22.3132 20.7879 21.6676C19.3436 22.1667 18.57 23.2608 17.8095 24.3362L17.8095 24.3363C17.5937 24.6415 17.3789 24.9453 17.1502 25.2335C7.30972 37.6319 0.979217 51.4007 0.835819 67.5486C0.754833 76.669 3.03774 85.1094 8.11349 92.7275C14.1938 101.853 22.9263 107.326 33.1323 110.73C33.2795 110.779 33.4321 110.819 33.5839 110.859L33.5841 110.859C34.2669 111.037 34.9358 111.213 35.0452 112.199C34.3578 113.161 33.2911 113.457 32.2666 113.74C31.9809 113.819 31.6985 113.898 31.4284 113.989C26.6647 115.604 22.0504 114.476 17.1595 112.36Z" fill="#784c4c"/>
</svg>
